<?xml version="1.0" encoding="UTF-8" standalone="no"?>
<!-- Created with Inkscape (http://www.inkscape.org/) -->

<svg
   width="96mm"
   height="96mm"
   viewBox="0 0 96 96"
   version="1.1"
   id="svg1"
   xml:space="preserve"
   inkscape:version="1.4.2 (f4327f4, 2025-05-13)"
   sodipodi:docname="google.svg"
   inkscape:export-filename="google.png"
   inkscape:export-xdpi="68.446404"
   inkscape:export-ydpi="68.446404"
   xmlns:inkscape="http://www.inkscape.org/namespaces/inkscape"
   xmlns:sodipodi="http://sodipodi.sourceforge.net/DTD/sodipodi-0.dtd"
   xmlns="http://www.w3.org/2000/svg"
   xmlns:svg="http://www.w3.org/2000/svg"><sodipodi:namedview
     id="namedview1"
     pagecolor="#ffffff"
     bordercolor="#666666"
     borderopacity="1.0"
     inkscape:showpageshadow="2"
     inkscape:pageopacity="0.0"
     inkscape:pagecheckerboard="0"
     inkscape:deskcolor="#d1d1d1"
     inkscape:document-units="mm"
     inkscape:zoom="1.4378367"
     inkscape:cx="183.26142"
     inkscape:cy="184.6524"
     inkscape:window-width="1920"
     inkscape:window-height="1009"
     inkscape:window-x="-8"
     inkscape:window-y="-8"
     inkscape:window-maximized="1"
     inkscape:current-layer="layer1" /><defs
     id="defs1" /><g
     inkscape:label="Слой 1"
     inkscape:groupmode="layer"
     id="layer1"
     transform="translate(-47.700001,-80.400002)"><g
       id="g25"
       inkscape:label="group"><path
         id="path2"
         style="display:inline;opacity:1;fill:#3f83f2;fill-opacity:1;stroke:none;stroke-width:0;stroke-linecap:round;stroke-linejoin:round;stroke-miterlimit:2.5;paint-order:fill markers stroke"
         d="m 95.710694,80.965341 c -26.233482,3.2e-5 -47.499912,21.266469 -47.499942,47.499949 3.3e-5,26.23348 21.266462,47.49991 47.499942,47.49994 26.233476,-3e-5 47.499906,-21.26646 47.499936,-47.49994 -8e-5,-2.83982 -0.25483,-5.67391 -0.76119,-8.46822 H 95.779424 v 18.19527 h 26.187026 c -4.06884,10.98278 -14.54351,18.27266 -26.255756,18.27279 -15.463848,-9e-5 -27.999752,-12.53599 -27.99984,-27.99984 8.8e-5,-15.46385 12.535992,-27.99975 27.99984,-27.99984 6.880436,9e-5 13.519966,2.53353 18.651576,7.11687 L 128.14799,93.765594 C 119.34943,85.540706 107.75492,80.965338 95.710694,80.965341 Z"
         sodipodi:nodetypes="sccccccccccccs"
         inkscape:label="g1" /><path
         id="path2-2"
         style="display:inline;opacity:1;fill:#e74133;fill-opacity:1;stroke-width:0;stroke-linecap:round;stroke-linejoin:round;stroke-miterlimit:2.5;paint-order:fill markers stroke"
         inkscape:label="g2"
         d="m 78.143034,106.66171 c 4.803938,-3.87549 10.914518,-6.19649 17.567403,-6.19652 6.880443,9e-5 13.520483,2.53353 18.652093,7.11687 l 13.7852,-13.816207 c -8.79855,-8.224888 -20.39305,-12.800255 -32.437293,-12.800252 -12.038789,1.4e-5 -23.0313,4.478704 -31.402734,11.860774 l 13.834814,13.835335 c 1.08e-4,-9e-5 4.09e-4,8e-5 5.17e-4,0 z" /><path
         id="path18"
         style="display:inline;opacity:1;fill:#f8bb00;fill-opacity:1;stroke-width:0;stroke-linecap:round;stroke-linejoin:round;stroke-miterlimit:2.5;paint-order:fill markers stroke"
         inkscape:label="g3"
         d="m 64.440511,92.707003 c -9.947297,8.706657 -16.229484,21.497367 -16.2295,35.755437 1.7e-5,14.00103 6.057807,26.58708 15.695166,35.28054 l 13.819311,-13.81983 c -6.122234,-5.13626 -10.014326,-12.84404 -10.014376,-21.46071 5.1e-5,-8.87454 4.128508,-16.78501 10.569898,-21.91494 z" /><path
         id="path24"
         style="display:inline;opacity:1;fill:#33a754;fill-opacity:1;stroke-width:0;stroke-linecap:round;stroke-linejoin:round;stroke-miterlimit:2.5;paint-order:fill markers stroke"
         inkscape:label="g4"
         d="m 63.870003,163.713 c 8.424202,7.61467 19.591027,12.25196 31.840951,12.25197 14.243036,-2e-5 27.021976,-6.26889 35.728056,-16.19798 l -13.83947,-13.83946 c -5.21705,6.53739 -13.21323,10.53724 -21.888586,10.53734 -6.864546,-4e-5 -13.151991,-2.47057 -18.022156,-6.57066 z" /></g></g></svg>
