<?xml version="1.0" encoding="UTF-8" standalone="no"?>
<!-- Created with Inkscape (http://www.inkscape.org/) -->

<svg
   width="121.63497mm"
   height="153.9614mm"
   viewBox="0 0 121.63498 153.9614"
   version="1.1"
   id="svg5"
   inkscape:version="1.1.2 (b8e25be833, 2022-02-05)"
   sodipodi:docname="logo.svg"
   inkscape:export-filename="C:\Users\palag\Desktop\logo.png"
   inkscape:export-xdpi="300.03751"
   inkscape:export-ydpi="300.03751"
   xmlns:inkscape="http://www.inkscape.org/namespaces/inkscape"
   xmlns:sodipodi="http://sodipodi.sourceforge.net/DTD/sodipodi-0.dtd"
   xmlns="http://www.w3.org/2000/svg"
   xmlns:svg="http://www.w3.org/2000/svg">
  <sodipodi:namedview
     id="namedview7"
     pagecolor="#ffffff"
     bordercolor="#666666"
     borderopacity="1.0"
     inkscape:pageshadow="2"
     inkscape:pageopacity="0.0"
     inkscape:pagecheckerboard="0"
     inkscape:document-units="mm"
     showgrid="false"
     inkscape:zoom="0.70710678"
     inkscape:cx="351.43207"
     inkscape:cy="336.58283"
     inkscape:window-width="1920"
     inkscape:window-height="1009"
     inkscape:window-x="-8"
     inkscape:window-y="-8"
     inkscape:window-maximized="1"
     inkscape:current-layer="layer2" />
  <defs
     id="defs2" />
  <g
     inkscape:groupmode="layer"
     id="layer2"
     inkscape:label="logo"
     style="display:inline;opacity:1"
     transform="translate(-8.7055491,-46.28888)">
    <g
       id="g1014">
      <g
         id="g58572"
         transform="translate(8.7055491,-0.72246588)">
        <path
           id="path53518"
           style="fill:#2d9bd2;fill-opacity:1;stroke:none;stroke-width:0;stroke-linecap:round;stroke-miterlimit:2.5;stroke-dasharray:none;stroke-opacity:1;paint-order:fill markers stroke"
           d="M 47.18072,49.381602 A 64.999999,64.999999 0 0 0 8.00754,80.032175 l 21.75317,12.283759 a 39.999999,39.999999 0 0 1 0.75348,-1.276575 39.999999,39.999999 0 0 1 1.66264,-2.486974 39.999999,39.999999 0 0 1 1.84346,-2.355384 39.999999,39.999999 0 0 1 2.01433,-2.211374 39.999999,39.999999 0 0 1 2.17422,-2.054666 39.999999,39.999999 0 0 1 2.32192,-1.885979 39.999999,39.999999 0 0 1 2.45569,-1.707536 39.999999,39.999999 0 0 1 2.57717,-1.519233 39.999999,39.999999 0 0 1 2.6827,-1.322752 39.999999,39.999999 0 0 1 2.77438,-1.118136 39.999999,39.999999 0 0 1 2.85057,-0.907598 39.999999,39.999999 0 0 1 0.99594,-0.262678 39.999999,39.999999 0 0 1 1.002,-0.237012 39.999999,39.999999 0 0 1 1.00805,-0.211335 39.999999,39.999999 0 0 1 1.01361,-0.185536 39.999999,39.999999 0 0 1 1.01732,-0.158666 39.999999,39.999999 0 0 1 1.02176,-0.133083 39.999999,39.999999 0 0 1 1.02431,-0.106444 39.999999,39.999999 0 0 1 1.02689,-0.07981 39.999999,39.999999 0 0 1 1.02869,-0.05403 39.999999,39.999999 0 0 1 1.02927,-0.02683 39.999999,39.999999 0 0 1 1.0302,-2.76e-4 39.999999,39.999999 0 0 1 1.02987,0.02556 39.999999,39.999999 0 0 1 1.02832,0.0528 39.999999,39.999999 0 0 1 1.02701,0.07891 39.999999,39.999999 0 0 1 1.02467,0.105304 39.999999,39.999999 0 0 1 1.02171,0.131333 39.999999,39.999999 0 0 1 1.01791,0.158136 39.999999,39.999999 0 0 1 1.01329,0.184086 39.999999,39.999999 0 0 1 1.00822,0.210165 39.999999,39.999999 0 0 1 1.00248,0.235897 39.999999,39.999999 0 0 1 0.99624,0.261765 39.999999,39.999999 0 0 1 0.98892,0.287395 39.999999,39.999999 0 0 1 0.98154,0.313045 39.999999,39.999999 0 0 1 0.9734,0.33783 39.999999,39.999999 0 0 1 0.96364,0.362529 39.999999,39.999999 0 0 1 0.95453,0.38759 39.999999,39.999999 0 0 1 0.94412,0.411928 39.999999,39.999999 0 0 1 0.9332,0.436418 39.999999,39.999999 0 0 1 0.9214,0.459539 39.999999,39.999999 0 0 1 0.90938,0.483795 39.999999,39.999999 0 0 1 0.63572,0.359753 L 96.36998,55.31922 A 64.999999,64.999999 0 0 0 47.18072,49.381609 Z" />
        <path
           id="path56513"
           style="fill:#ff884d;fill-opacity:1;stroke:none;stroke-width:0;stroke-linecap:round;stroke-miterlimit:2.5;stroke-dasharray:none;stroke-opacity:1;paint-order:fill markers stroke"
           inkscape:transform-center-x="-56.126605"
           inkscape:transform-center-y="56.126605"
           d="m 64.63812,77.818069 a 34.999998,34.999998 0 0 1 0.38964,-0.0072 34.999998,34.999998 0 0 1 0.90124,0.01137 34.999998,34.999998 0 0 1 0.90072,0.03514 34.999998,34.999998 0 0 1 0.89918,0.05788 34.999998,34.999998 0 0 1 0.8976,0.08113 34.999998,34.999998 0 0 1 0.89503,0.104386 34.999998,34.999998 0 0 1 0.89247,0.127124 34.999998,34.999998 0 0 1 0.88884,0.14986 34.999998,34.999998 0 0 1 0.88419,0.173117 34.999998,34.999998 0 0 1 0.88003,0.195855 34.999998,34.999998 0 0 1 0.87436,0.218072 34.999998,34.999998 0 0 1 0.86818,0.240813 34.999998,34.999998 0 0 1 0.86246,0.263033 34.999998,34.999998 0 0 1 0.85474,0.285255 34.999998,34.999998 0 0 1 0.84749,0.306957 34.999998,34.999998 0 0 1 0.83923,0.328663 34.999998,34.999998 0 0 1 0.83045,0.350366 34.999998,34.999998 0 0 1 0.82113,0.371555 34.999998,34.999998 0 0 1 0.81079,0.392223 34.999998,34.999998 0 0 1 0.801,0.413412 34.999998,34.999998 0 0 1 0.79013,0.43408 34.999998,34.999998 0 0 1 0.77877,0.453721 34.999998,34.999998 0 0 1 0.76637,0.473871 34.999998,34.999998 0 0 1 0.75445,0.493512 34.999998,34.999998 0 0 1 0.74105,0.51263 34.999998,34.999998 0 0 1 0.7276,0.531749 34.999998,34.999998 0 0 1 0.71417,0.549839 34.999998,34.999998 0 0 1 0.69919,0.568438 34.999998,34.999998 0 0 1 0.68471,0.586529 34.999998,34.999998 0 0 1 0.66921,0.60358 34.999998,34.999998 0 0 1 0.65318,0.620633 34.999998,34.999998 0 0 1 0.6377,0.637173 34.999998,34.999998 0 0 1 0.62063,0.653706 34.999998,34.999998 0 0 1 0.60357,0.66921 34.999998,34.999998 0 0 1 0.58602,0.684194 34.999998,34.999998 0 0 1 0.56843,0.699702 34.999998,34.999998 0 0 1 0.55036,0.71365 34.999998,34.999998 0 0 1 0.53123,0.727604 34.999998,34.999998 0 0 1 0.51263,0.741558 34.999998,34.999998 0 0 1 0.49353,0.753955 34.999998,34.999998 0 0 1 0.47387,0.766885 34.999998,34.999998 0 0 1 0.45424,0.77825 34.999998,34.999998 0 0 1 0.43354,0.79013 34.999998,34.999998 0 0 1 0.41341,0.80098 34.999998,34.999998 0 0 1 0.39275,0.81133 34.999998,34.999998 0 0 1 0.37156,0.82113 34.999998,34.999998 0 0 1 0.34985,0.83044 34.999998,34.999998 0 0 1 0.32867,0.839231 34.999998,34.999998 0 0 1 0.30747,0.84698 34.999998,34.999998 0 0 1 0.28472,0.85524 34.999998,34.999998 0 0 1 0.26305,0.86196 34.999998,34.999998 0 0 1 0.2408,0.86868 34.999998,34.999998 0 0 1 0.2186,0.87437 34.999998,34.999998 0 0 1 0.19534,0.87953 34.999998,34.999998 0 0 1 0.17311,0.8847 34.999998,34.999998 0 0 1 0.15039,0.88832 34.999998,34.999998 0 0 1 0.12711,0.89245 34.999998,34.999998 0 0 1 0.10387,0.89504 34.999998,34.999998 0 0 1 0.0811,0.89762 34.999998,34.999998 0 0 1 0.0584,0.89969 34.999998,34.999998 0 0 1 0.0346,0.9002 34.999998,34.999998 0 0 1 0.0114,0.90124 34.999998,34.999998 0 0 1 -0.002,0.37775 h 21.48808 a 56.5,56.5 0 0 0 0.0139,-0.37775 56.5,56.5 0 0 0 -56.4999,-56.49992 56.5,56.5 0 0 0 -0.38964,0.0098 z" />
        <path
           id="path875"
           style="fill:#2d9bd2;fill-opacity:1;stroke-width:0;stroke-linecap:round;stroke-miterlimit:2.5;paint-order:fill markers stroke"
           d="m 44.67917,104.69608 a 7.875,7.875 0 0 0 -7.87497,7.87497 7.875,7.875 0 0 0 7.87497,7.87497 7.875,7.875 0 0 0 7.87497,-7.87497 7.875,7.875 0 0 0 -7.87497,-7.87497 z m 19.61069,0.0341 a 7.875,7.875 0 0 0 -7.87497,7.87497 7.875,7.875 0 0 0 7.87497,7.87497 7.875,7.875 0 0 0 7.87497,-7.87497 7.875,7.875 0 0 0 -7.87497,-7.87497 z m 19.57917,0 a 7.875,7.875 0 0 0 -7.87498,7.87497 7.875,7.875 0 0 0 7.87498,7.87497 7.875,7.875 0 0 0 7.87498,-7.87497 7.875,7.875 0 0 0 -7.87498,-7.87497 z" />
        <path
           id="path3939"
           style="fill:#24a87c;fill-opacity:1;stroke-width:0;stroke-linecap:round;stroke-miterlimit:2.5;paint-order:fill markers stroke"
           d="M 0.0186,110.2651 A 55,55 0 0 0 0,110.76171 a 55,55 0 0 0 53.48253,54.915 l 26.09815,35.29603 10.34664,-13.99294 -0.016,-0.0217 31.72365,-43.03613 h -20.36723 l -21.55579,29.24215 -21.84209,-29.5398 a 33,33 0 0 1 -0.4036,0.0455 33,33 0 0 1 -2.4665,0.092 33,33 0 0 1 -2.46601,-0.092 33,33 0 0 1 -2.45204,-0.27647 33,33 0 0 1 -2.42466,-0.45888 33,33 0 0 1 -2.38384,-0.63872 33,33 0 0 1 -2.32957,-0.81494 33,33 0 0 1 -2.26188,-0.98702 33,33 0 0 1 -2.18178,-1.1529 33,33 0 0 1 -2.08979,-1.3131 33,33 0 0 1 -1.98541,-1.46555 33,33 0 0 1 -1.87069,-1.60972 33,33 0 0 1 -1.74459,-1.74459 33,33 0 0 1 -1.60972,-1.87069 33,33 0 0 1 -1.46555,-1.98592 33,33 0 0 1 -1.3131,-2.08928 33,33 0 0 1 -1.1529,-2.18178 33,33 0 0 1 -0.98702,-2.26188 33,33 0 0 1 -0.81493,-2.32957 33,33 0 0 1 -0.63872,-2.38384 33,33 0 0 1 -0.45889,-2.42465 33,33 0 0 1 -0.27647,-2.45205 33,33 0 0 1 -0.092,-2.46652 33,33 0 0 1 0.0186,-0.49661 z" />
      </g>
    </g>
  </g>
</svg>
